<?xml version="1.0" encoding="utf-8"?>
<!-- Generator: Adobe Illustrator 23.0.2, SVG Export Plug-In . SVG Version: 6.00 Build 0)  -->
<svg version="1.1" id="logosvg.com" xmlns="http://www.w3.org/2000/svg" xmlns:xlink="http://www.w3.org/1999/xlink" x="0px"
	 y="0px" viewBox="0 0 364.4 89" style="enable-background:new 0 0 364.4 89;" xml:space="preserve">
<style type="text/css">
	.st0{fill:#253B80;}
	.st1{fill:#179BD7;}
	.st2{fill:#222D65;}
</style>
<path class="st0" d="M136.2,19.9H116c-1.4,0-2.6,1-2.8,2.4L105,74c-0.1,0.9,0.5,1.8,1.4,1.9c0.1,0,0.2,0,0.3,0h9.6
	c1.4,0,2.6-1,2.8-2.4l2.2-13.9c0.2-1.4,1.4-2.4,2.8-2.4h6.4c13.3,0,21-6.4,23-19.2c0.9-5.6,0-10-2.6-13
	C148.1,21.7,143,19.9,136.2,19.9z M138.6,38.8c-1.1,7.2-6.6,7.2-12,7.2h-3l2.1-13.5c0.1-0.8,0.8-1.4,1.7-1.4h1.4
	c3.6,0,7.1,0,8.9,2.1C138.7,34.4,139,36.2,138.6,38.8z M196.5,38.6h-9.7c-0.8,0-1.5,0.6-1.7,1.4l-0.4,2.7l-0.7-1
	c-2.1-3-6.8-4-11.4-4c-10.7,0-19.8,8.1-21.6,19.4c-0.9,5.7,0.4,11.1,3.6,14.8c2.9,3.5,7.2,4.9,12.2,4.9c8.6,0,13.4-5.5,13.4-5.5
	l-0.4,2.7c-0.1,0.9,0.5,1.8,1.4,1.9c0.1,0,0.2,0,0.3,0h8.7c1.4,0,2.6-1,2.8-2.4l5.2-33.1c0.1-0.9-0.5-1.8-1.4-1.9
	C196.7,38.6,196.6,38.6,196.5,38.6z M183.1,57.3c-0.9,5.5-5.3,9.2-10.9,9.2c-2.8,0-5-0.9-6.5-2.6c-1.4-1.7-2-4.1-1.5-6.8
	c0.9-5.5,5.3-9.3,10.8-9.3c2.7,0,5,0.9,6.4,2.6C182.9,52.2,183.5,54.7,183.1,57.3z M248,38.6h-9.7c-0.9,0-1.8,0.5-2.3,1.2
	l-13.4,19.7l-5.7-18.9c-0.4-1.2-1.5-2-2.7-2h-9.5c-0.9,0-1.7,0.7-1.7,1.7c0,0.2,0,0.4,0.1,0.5l10.7,31.4l-10,14.2
	c-0.5,0.8-0.4,1.8,0.4,2.3c0.3,0.2,0.6,0.3,1,0.3h9.7c0.9,0,1.8-0.4,2.3-1.2l32.3-46.6c0.5-0.8,0.3-1.8-0.4-2.3
	C248.6,38.7,248.3,38.6,248,38.6L248,38.6z"/>
<path class="st1" d="M280.1,19.9h-20.2c-1.4,0-2.6,1-2.8,2.4L248.9,74c-0.1,0.9,0.5,1.8,1.4,1.9c0.1,0,0.2,0,0.3,0h10.3
	c1,0,1.8-0.7,1.9-1.7l2.3-14.7c0.2-1.4,1.4-2.4,2.8-2.4h6.4c13.3,0,21-6.4,23-19.2c0.9-5.6,0-10-2.6-13
	C291.9,21.7,286.8,19.9,280.1,19.9z M282.4,38.8c-1.1,7.2-6.6,7.2-12,7.2h-3l2.1-13.5c0.1-0.8,0.8-1.4,1.7-1.4h1.4
	c3.6,0,7.1,0,8.9,2.1C282.5,34.4,282.8,36.2,282.4,38.8z M340.4,38.6h-9.7c-0.8,0-1.5,0.6-1.7,1.4l-0.4,2.7l-0.7-1
	c-2.1-3-6.7-4-11.4-4c-10.7,0-19.8,8.1-21.6,19.4c-0.9,5.7,0.4,11.1,3.6,14.8c2.9,3.5,7.2,4.9,12.2,4.9c8.6,0,13.4-5.5,13.4-5.5
	l-0.4,2.7c-0.1,0.9,0.5,1.8,1.4,1.9c0.1,0,0.2,0,0.3,0h8.7c1.4,0,2.6-1,2.8-2.4l5.2-33.1c0.1-0.9-0.5-1.8-1.4-1.9
	C340.5,38.6,340.4,38.6,340.4,38.6z M326.9,57.3c-0.9,5.5-5.3,9.2-10.9,9.2c-2.8,0-5-0.9-6.5-2.6c-1.4-1.7-2-4.1-1.5-6.8
	c0.9-5.5,5.3-9.3,10.8-9.3c2.7,0,5,0.9,6.4,2.6C326.7,52.2,327.3,54.7,326.9,57.3z M351.7,21.3L343.4,74c-0.1,0.9,0.5,1.8,1.4,1.9
	c0.1,0,0.2,0,0.3,0h8.3c1.4,0,2.6-1,2.8-2.4l8.2-51.7c0.1-0.9-0.5-1.8-1.4-1.9c-0.1,0-0.2,0-0.3,0h-9.3
	C352.6,19.9,351.9,20.5,351.7,21.3z"/>
<path class="st0" d="M21.4,86l1.5-9.8l-3.4-0.1H3.1L14.5,3.8C14.6,3.3,15,3,15.4,3h27.7c9.2,0,15.5,1.9,18.8,5.7
	c1.6,1.8,2.5,3.6,3,5.7s0.5,4.7,0,7.8v0.2v2l1.6,0.9c1.2,0.6,2.2,1.4,3.1,2.4c1.3,1.5,2.2,3.4,2.5,5.7c0.4,2.3,0.3,5.1-0.4,8.3
	c-0.7,3.6-1.9,6.8-3.4,9.4c-1.4,2.3-3.2,4.3-5.4,5.9c-2.1,1.5-4.5,2.6-7.2,3.3s-5.7,1-9.1,1h-2.2c-1.5,0-3,0.6-4.2,1.5
	c-1.2,1-1.9,2.4-2.2,3.9l-0.2,0.9l-2.5,17.3l-0.1,0.6c0,0.2-0.1,0.3-0.2,0.4C34.9,86,34.8,86,34.7,86C34.7,86,21.4,86,21.4,86z"/>
<path class="st1" d="M67.9,22.6c-0.1,0.5-0.2,1.1-0.3,1.6C64,42.9,51.5,49.4,35.5,49.4h-8.1c-1.9,0-3.6,1.4-3.9,3.3l-4.1,26.4
	l-1.2,7.5c-0.2,1.1,0.6,2.2,1.7,2.4c0.1,0,0.2,0,0.3,0h14.4c1.7,0,3.2-1.2,3.4-2.9l0.1-0.7l2.7-17.2l0.2-0.9
	c0.3-1.7,1.7-2.9,3.4-2.9h2.2c13.9,0,24.9-5.7,28.1-22c1.3-6.8,0.6-12.6-2.9-16.6C70.8,24.4,69.4,23.4,67.9,22.6z"/>
<path class="st2" d="M64.1,21.1c-1.2-0.3-2.3-0.6-3.5-0.8c-2.4-0.4-4.8-0.5-7.2-0.5H31.8c-1.7,0-3.2,1.2-3.4,2.9l-4.7,29.2l-0.1,0.9
	c0.3-1.9,2-3.3,3.9-3.3h8.1c15.9,0,28.4-6.5,32.1-25.2c0.1-0.6,0.2-1.1,0.3-1.6c-1-0.5-2-0.9-3-1.3C64.7,21.2,64.4,21.2,64.1,21.1z"
	/>
<path class="st0" d="M28.3,22.7c0.3-1.7,1.7-2.9,3.4-2.9h21.7c2.6,0,5,0.2,7.2,0.5c1.5,0.2,2.9,0.6,4.4,1c1.1,0.4,2.1,0.8,3,1.3
	c1.1-6.9,0-11.6-3.8-15.9C60.1,2,52.6,0,43.1,0H15.4c-1.9,0-3.6,1.4-3.9,3.3L0,76.3c-0.2,1.3,0.7,2.5,2,2.7c0.1,0,0.2,0,0.4,0h17
	l4.3-27.2C23.7,51.9,28.3,22.7,28.3,22.7z"/>
</svg>
